<svg width="34" height="34" viewBox="0 0 34 34" fill="none" xmlns="http://www.w3.org/2000/svg">
<path fill-rule="evenodd" clip-rule="evenodd" d="M33.4887 16.7995C33.4887 25.8151 26.0742 33.1237 16.9279 33.1237C7.78169 33.1237 0.367188 25.8151 0.367188 16.7995C0.367188 7.78392 7.78169 0.475342 16.9279 0.475342C26.0742 0.475342 33.4887 7.78392 33.4887 16.7995ZM32.1638 16.7995C32.1638 25.0938 25.3425 31.8177 16.9279 31.8177C8.51339 31.8177 1.69205 25.0938 1.69205 16.7995C1.69205 8.50517 8.51339 1.78128 16.9279 1.78128C25.3425 1.78128 32.1638 8.50517 32.1638 16.7995ZM14.2782 13.5347V14.1876H15.6031V24.6351H14.2782V25.2881L15.6031 25.2881H18.2528L19.5777 25.2881V24.6351H18.2528V13.5347H15.6031H14.2782ZM18.9152 10.2698C18.9152 11.3517 18.0255 12.2287 16.9279 12.2287C15.8304 12.2287 14.9406 11.3517 14.9406 10.2698C14.9406 9.18797 15.8304 8.31094 16.9279 8.31094C18.0255 8.31094 18.9152 9.18797 18.9152 10.2698Z" fill="#2B4074"/>
</svg>
